<mxfile host="Electron" agent="Mozilla/5.0 (Windows NT 10.0; Win64; x64) AppleWebKit/537.36 (KHTML, like Gecko) draw.io/24.7.5 Chrome/126.0.6478.183 Electron/31.3.0 Safari/537.36" version="24.7.5">
  <diagram id="R2lEEEUBdFMjLlhIrx00" name="Page-1">
    <mxGraphModel dx="1222" dy="1886" grid="0" gridSize="10" guides="1" tooltips="1" connect="1" arrows="1" fold="1" page="1" pageScale="1" pageWidth="850" pageHeight="1100" math="0" shadow="0" extFonts="Permanent Marker^https://fonts.googleapis.com/css?family=Permanent+Marker">
      <root>
        <mxCell id="0" />
        <mxCell id="1" parent="0" />
        <mxCell id="C-vyLk0tnHw3VtMMgP7b-2" value="order" style="shape=table;startSize=30;container=1;collapsible=1;childLayout=tableLayout;fixedRows=1;rowLines=0;fontStyle=1;align=center;resizeLast=1;" parent="1" vertex="1">
          <mxGeometry x="680" y="130" width="270" height="187.33" as="geometry" />
        </mxCell>
        <mxCell id="C-vyLk0tnHw3VtMMgP7b-3" value="" style="shape=partialRectangle;collapsible=0;dropTarget=0;pointerEvents=0;fillColor=none;points=[[0,0.5],[1,0.5]];portConstraint=eastwest;top=0;left=0;right=0;bottom=1;" parent="C-vyLk0tnHw3VtMMgP7b-2" vertex="1">
          <mxGeometry y="30" width="270" height="30" as="geometry" />
        </mxCell>
        <mxCell id="C-vyLk0tnHw3VtMMgP7b-4" value="PK" style="shape=partialRectangle;overflow=hidden;connectable=0;fillColor=none;top=0;left=0;bottom=0;right=0;fontStyle=1;" parent="C-vyLk0tnHw3VtMMgP7b-3" vertex="1">
          <mxGeometry width="30" height="30" as="geometry">
            <mxRectangle width="30" height="30" as="alternateBounds" />
          </mxGeometry>
        </mxCell>
        <mxCell id="C-vyLk0tnHw3VtMMgP7b-5" value="order_id int NOT NULL " style="shape=partialRectangle;overflow=hidden;connectable=0;fillColor=none;top=0;left=0;bottom=0;right=0;align=left;spacingLeft=6;fontStyle=5;" parent="C-vyLk0tnHw3VtMMgP7b-3" vertex="1">
          <mxGeometry x="30" width="240" height="30" as="geometry">
            <mxRectangle width="240" height="30" as="alternateBounds" />
          </mxGeometry>
        </mxCell>
        <mxCell id="C-vyLk0tnHw3VtMMgP7b-6" value="" style="shape=partialRectangle;collapsible=0;dropTarget=0;pointerEvents=0;fillColor=none;points=[[0,0.5],[1,0.5]];portConstraint=eastwest;top=0;left=0;right=0;bottom=0;" parent="C-vyLk0tnHw3VtMMgP7b-2" vertex="1">
          <mxGeometry y="60" width="270" height="30" as="geometry" />
        </mxCell>
        <mxCell id="C-vyLk0tnHw3VtMMgP7b-7" value="FK1" style="shape=partialRectangle;overflow=hidden;connectable=0;fillColor=none;top=0;left=0;bottom=0;right=0;" parent="C-vyLk0tnHw3VtMMgP7b-6" vertex="1">
          <mxGeometry width="30" height="30" as="geometry">
            <mxRectangle width="30" height="30" as="alternateBounds" />
          </mxGeometry>
        </mxCell>
        <mxCell id="C-vyLk0tnHw3VtMMgP7b-8" value="user_id int NOT NULL" style="shape=partialRectangle;overflow=hidden;connectable=0;fillColor=none;top=0;left=0;bottom=0;right=0;align=left;spacingLeft=6;" parent="C-vyLk0tnHw3VtMMgP7b-6" vertex="1">
          <mxGeometry x="30" width="240" height="30" as="geometry">
            <mxRectangle width="240" height="30" as="alternateBounds" />
          </mxGeometry>
        </mxCell>
        <mxCell id="C-vyLk0tnHw3VtMMgP7b-9" value="" style="shape=partialRectangle;collapsible=0;dropTarget=0;pointerEvents=0;fillColor=none;points=[[0,0.5],[1,0.5]];portConstraint=eastwest;top=0;left=0;right=0;bottom=0;" parent="C-vyLk0tnHw3VtMMgP7b-2" vertex="1">
          <mxGeometry y="90" width="270" height="29" as="geometry" />
        </mxCell>
        <mxCell id="C-vyLk0tnHw3VtMMgP7b-10" value="" style="shape=partialRectangle;overflow=hidden;connectable=0;fillColor=none;top=0;left=0;bottom=0;right=0;" parent="C-vyLk0tnHw3VtMMgP7b-9" vertex="1">
          <mxGeometry width="30" height="29" as="geometry">
            <mxRectangle width="30" height="29" as="alternateBounds" />
          </mxGeometry>
        </mxCell>
        <mxCell id="C-vyLk0tnHw3VtMMgP7b-11" value="order_date date NOT NULL" style="shape=partialRectangle;overflow=hidden;connectable=0;fillColor=none;top=0;left=0;bottom=0;right=0;align=left;spacingLeft=6;" parent="C-vyLk0tnHw3VtMMgP7b-9" vertex="1">
          <mxGeometry x="30" width="240" height="29" as="geometry">
            <mxRectangle width="240" height="29" as="alternateBounds" />
          </mxGeometry>
        </mxCell>
        <mxCell id="5_TtilHv6aSdRsSLtLoY-49" value="" style="shape=partialRectangle;collapsible=0;dropTarget=0;pointerEvents=0;fillColor=none;points=[[0,0.5],[1,0.5]];portConstraint=eastwest;top=0;left=0;right=0;bottom=0;" parent="C-vyLk0tnHw3VtMMgP7b-2" vertex="1">
          <mxGeometry y="119" width="270" height="29" as="geometry" />
        </mxCell>
        <mxCell id="5_TtilHv6aSdRsSLtLoY-50" value="" style="shape=partialRectangle;overflow=hidden;connectable=0;fillColor=none;top=0;left=0;bottom=0;right=0;" parent="5_TtilHv6aSdRsSLtLoY-49" vertex="1">
          <mxGeometry width="30" height="29" as="geometry">
            <mxRectangle width="30" height="29" as="alternateBounds" />
          </mxGeometry>
        </mxCell>
        <mxCell id="5_TtilHv6aSdRsSLtLoY-51" value="totel_amount float NOT NULL" style="shape=partialRectangle;overflow=hidden;connectable=0;fillColor=none;top=0;left=0;bottom=0;right=0;align=left;spacingLeft=6;" parent="5_TtilHv6aSdRsSLtLoY-49" vertex="1">
          <mxGeometry x="30" width="240" height="29" as="geometry">
            <mxRectangle width="240" height="29" as="alternateBounds" />
          </mxGeometry>
        </mxCell>
        <mxCell id="5_TtilHv6aSdRsSLtLoY-104" value="" style="shape=partialRectangle;collapsible=0;dropTarget=0;pointerEvents=0;fillColor=none;points=[[0,0.5],[1,0.5]];portConstraint=eastwest;top=0;left=0;right=0;bottom=0;" parent="C-vyLk0tnHw3VtMMgP7b-2" vertex="1">
          <mxGeometry y="148" width="270" height="29" as="geometry" />
        </mxCell>
        <mxCell id="5_TtilHv6aSdRsSLtLoY-105" value="" style="shape=partialRectangle;overflow=hidden;connectable=0;fillColor=none;top=0;left=0;bottom=0;right=0;" parent="5_TtilHv6aSdRsSLtLoY-104" vertex="1">
          <mxGeometry width="30" height="29" as="geometry">
            <mxRectangle width="30" height="29" as="alternateBounds" />
          </mxGeometry>
        </mxCell>
        <mxCell id="5_TtilHv6aSdRsSLtLoY-106" value="status char(50) NOT NULL" style="shape=partialRectangle;overflow=hidden;connectable=0;fillColor=none;top=0;left=0;bottom=0;right=0;align=left;spacingLeft=6;" parent="5_TtilHv6aSdRsSLtLoY-104" vertex="1">
          <mxGeometry x="30" width="240" height="29" as="geometry">
            <mxRectangle width="240" height="29" as="alternateBounds" />
          </mxGeometry>
        </mxCell>
        <mxCell id="C-vyLk0tnHw3VtMMgP7b-23" value="customer" style="shape=table;startSize=30;container=1;collapsible=1;childLayout=tableLayout;fixedRows=1;rowLines=0;fontStyle=1;align=center;resizeLast=1;" parent="1" vertex="1">
          <mxGeometry x="111" y="103" width="250" height="317" as="geometry" />
        </mxCell>
        <mxCell id="C-vyLk0tnHw3VtMMgP7b-24" value="" style="shape=partialRectangle;collapsible=0;dropTarget=0;pointerEvents=0;fillColor=none;points=[[0,0.5],[1,0.5]];portConstraint=eastwest;top=0;left=0;right=0;bottom=1;" parent="C-vyLk0tnHw3VtMMgP7b-23" vertex="1">
          <mxGeometry y="30" width="250" height="30" as="geometry" />
        </mxCell>
        <mxCell id="C-vyLk0tnHw3VtMMgP7b-25" value="PK" style="shape=partialRectangle;overflow=hidden;connectable=0;fillColor=none;top=0;left=0;bottom=0;right=0;fontStyle=1;" parent="C-vyLk0tnHw3VtMMgP7b-24" vertex="1">
          <mxGeometry width="30" height="30" as="geometry">
            <mxRectangle width="30" height="30" as="alternateBounds" />
          </mxGeometry>
        </mxCell>
        <mxCell id="C-vyLk0tnHw3VtMMgP7b-26" value="user_id int NOT NULL" style="shape=partialRectangle;overflow=hidden;connectable=0;fillColor=none;top=0;left=0;bottom=0;right=0;align=left;spacingLeft=6;fontStyle=5;" parent="C-vyLk0tnHw3VtMMgP7b-24" vertex="1">
          <mxGeometry x="30" width="220" height="30" as="geometry">
            <mxRectangle width="220" height="30" as="alternateBounds" />
          </mxGeometry>
        </mxCell>
        <mxCell id="C-vyLk0tnHw3VtMMgP7b-27" value="" style="shape=partialRectangle;collapsible=0;dropTarget=0;pointerEvents=0;fillColor=none;points=[[0,0.5],[1,0.5]];portConstraint=eastwest;top=0;left=0;right=0;bottom=0;" parent="C-vyLk0tnHw3VtMMgP7b-23" vertex="1">
          <mxGeometry y="60" width="250" height="229" as="geometry" />
        </mxCell>
        <mxCell id="C-vyLk0tnHw3VtMMgP7b-28" value="" style="shape=partialRectangle;overflow=hidden;connectable=0;fillColor=none;top=0;left=0;bottom=0;right=0;" parent="C-vyLk0tnHw3VtMMgP7b-27" vertex="1">
          <mxGeometry width="30" height="229" as="geometry">
            <mxRectangle width="30" height="229" as="alternateBounds" />
          </mxGeometry>
        </mxCell>
        <mxCell id="C-vyLk0tnHw3VtMMgP7b-29" value="name char(50) NOT NULL&#xa;&#xa;email char(50) NOT NULL&#xa;&#xa;password char(50) &#xa;&#xa;address char(250)&#xa;&#xa;role enum(&quot;CUSTOMER&quot;, &quot;ADMIN&quot;,&#xa; &quot;SELLER&quot;) NOT NULL&#xa;&#xa;isVerified Boolean&#xa;&#xa;verifyToken varchar(200)&#xa;&#xa;verifyToken_expiry_date date" style="shape=partialRectangle;overflow=hidden;connectable=0;fillColor=none;top=0;left=0;bottom=0;right=0;align=left;spacingLeft=6;" parent="C-vyLk0tnHw3VtMMgP7b-27" vertex="1">
          <mxGeometry x="30" width="220" height="229" as="geometry">
            <mxRectangle width="220" height="229" as="alternateBounds" />
          </mxGeometry>
        </mxCell>
        <mxCell id="5_TtilHv6aSdRsSLtLoY-1" value="product" style="shape=table;startSize=30;container=1;collapsible=1;childLayout=tableLayout;fixedRows=1;rowLines=0;fontStyle=1;align=center;resizeLast=1;" parent="1" vertex="1">
          <mxGeometry x="862" y="434" width="250" height="209.04779343377942" as="geometry">
            <mxRectangle x="862" y="434" width="75" height="30" as="alternateBounds" />
          </mxGeometry>
        </mxCell>
        <mxCell id="5_TtilHv6aSdRsSLtLoY-2" value="" style="shape=partialRectangle;collapsible=0;dropTarget=0;pointerEvents=0;fillColor=none;points=[[0,0.5],[1,0.5]];portConstraint=eastwest;top=0;left=0;right=0;bottom=1;" parent="5_TtilHv6aSdRsSLtLoY-1" vertex="1">
          <mxGeometry y="30" width="250" height="30" as="geometry" />
        </mxCell>
        <mxCell id="5_TtilHv6aSdRsSLtLoY-3" value="PK" style="shape=partialRectangle;overflow=hidden;connectable=0;fillColor=none;top=0;left=0;bottom=0;right=0;fontStyle=1;" parent="5_TtilHv6aSdRsSLtLoY-2" vertex="1">
          <mxGeometry width="30" height="30" as="geometry">
            <mxRectangle width="30" height="30" as="alternateBounds" />
          </mxGeometry>
        </mxCell>
        <mxCell id="5_TtilHv6aSdRsSLtLoY-4" value="product_id int NOT NULL " style="shape=partialRectangle;overflow=hidden;connectable=0;fillColor=none;top=0;left=0;bottom=0;right=0;align=left;spacingLeft=6;fontStyle=5;" parent="5_TtilHv6aSdRsSLtLoY-2" vertex="1">
          <mxGeometry x="30" width="220" height="30" as="geometry">
            <mxRectangle width="220" height="30" as="alternateBounds" />
          </mxGeometry>
        </mxCell>
        <mxCell id="5_TtilHv6aSdRsSLtLoY-8" value="" style="shape=partialRectangle;collapsible=0;dropTarget=0;pointerEvents=0;fillColor=none;points=[[0,0.5],[1,0.5]];portConstraint=eastwest;top=0;left=0;right=0;bottom=0;" parent="5_TtilHv6aSdRsSLtLoY-1" vertex="1">
          <mxGeometry y="60" width="250" height="27" as="geometry" />
        </mxCell>
        <mxCell id="5_TtilHv6aSdRsSLtLoY-9" value="FK" style="shape=partialRectangle;overflow=hidden;connectable=0;fillColor=none;top=0;left=0;bottom=0;right=0;" parent="5_TtilHv6aSdRsSLtLoY-8" vertex="1">
          <mxGeometry width="30" height="27" as="geometry">
            <mxRectangle width="30" height="27" as="alternateBounds" />
          </mxGeometry>
        </mxCell>
        <mxCell id="5_TtilHv6aSdRsSLtLoY-10" value="seller_id int NOT NULL" style="shape=partialRectangle;overflow=hidden;connectable=0;fillColor=none;top=0;left=0;bottom=0;right=0;align=left;spacingLeft=6;" parent="5_TtilHv6aSdRsSLtLoY-8" vertex="1">
          <mxGeometry x="30" width="220" height="27" as="geometry">
            <mxRectangle width="220" height="27" as="alternateBounds" />
          </mxGeometry>
        </mxCell>
        <mxCell id="5_TtilHv6aSdRsSLtLoY-46" value="" style="shape=partialRectangle;collapsible=0;dropTarget=0;pointerEvents=0;fillColor=none;points=[[0,0.5],[1,0.5]];portConstraint=eastwest;top=0;left=0;right=0;bottom=0;" parent="5_TtilHv6aSdRsSLtLoY-1" vertex="1">
          <mxGeometry y="87" width="250" height="122" as="geometry" />
        </mxCell>
        <mxCell id="5_TtilHv6aSdRsSLtLoY-47" value="" style="shape=partialRectangle;overflow=hidden;connectable=0;fillColor=none;top=0;left=0;bottom=0;right=0;" parent="5_TtilHv6aSdRsSLtLoY-46" vertex="1">
          <mxGeometry width="30" height="122" as="geometry">
            <mxRectangle width="30" height="122" as="alternateBounds" />
          </mxGeometry>
        </mxCell>
        <mxCell id="5_TtilHv6aSdRsSLtLoY-48" value="name char(50) NOT NULL&#xa;descriotion char(50) NOT NULL&#xa;images &#xa;price float NOT NULL&#xa;category char(50) &#xa;brand char(50)" style="shape=partialRectangle;overflow=hidden;connectable=0;fillColor=none;top=0;left=0;bottom=0;right=0;align=left;spacingLeft=6;" parent="5_TtilHv6aSdRsSLtLoY-46" vertex="1">
          <mxGeometry x="30" width="220" height="122" as="geometry">
            <mxRectangle width="220" height="122" as="alternateBounds" />
          </mxGeometry>
        </mxCell>
        <mxCell id="5_TtilHv6aSdRsSLtLoY-32" value="order_items" style="shape=table;startSize=30;container=1;collapsible=1;childLayout=tableLayout;fixedRows=1;rowLines=0;fontStyle=1;align=center;resizeLast=1;html=1;" parent="1" vertex="1">
          <mxGeometry x="1140" y="225" width="199" height="120" as="geometry" />
        </mxCell>
        <mxCell id="5_TtilHv6aSdRsSLtLoY-36" value="" style="shape=tableRow;horizontal=0;startSize=0;swimlaneHead=0;swimlaneBody=0;fillColor=none;collapsible=0;dropTarget=0;points=[[0,0.5],[1,0.5]];portConstraint=eastwest;top=0;left=0;right=0;bottom=0;" parent="5_TtilHv6aSdRsSLtLoY-32" vertex="1">
          <mxGeometry y="30" width="199" height="30" as="geometry" />
        </mxCell>
        <mxCell id="5_TtilHv6aSdRsSLtLoY-37" value="FK" style="shape=partialRectangle;connectable=0;fillColor=none;top=0;left=0;bottom=0;right=0;editable=1;overflow=hidden;whiteSpace=wrap;html=1;" parent="5_TtilHv6aSdRsSLtLoY-36" vertex="1">
          <mxGeometry width="30" height="30" as="geometry">
            <mxRectangle width="30" height="30" as="alternateBounds" />
          </mxGeometry>
        </mxCell>
        <mxCell id="5_TtilHv6aSdRsSLtLoY-38" value="order_id int NOT NULL" style="shape=partialRectangle;connectable=0;fillColor=none;top=0;left=0;bottom=0;right=0;align=left;spacingLeft=6;overflow=hidden;whiteSpace=wrap;html=1;" parent="5_TtilHv6aSdRsSLtLoY-36" vertex="1">
          <mxGeometry x="30" width="169" height="30" as="geometry">
            <mxRectangle width="169" height="30" as="alternateBounds" />
          </mxGeometry>
        </mxCell>
        <mxCell id="5_TtilHv6aSdRsSLtLoY-39" value="" style="shape=tableRow;horizontal=0;startSize=0;swimlaneHead=0;swimlaneBody=0;fillColor=none;collapsible=0;dropTarget=0;points=[[0,0.5],[1,0.5]];portConstraint=eastwest;top=0;left=0;right=0;bottom=0;" parent="5_TtilHv6aSdRsSLtLoY-32" vertex="1">
          <mxGeometry y="60" width="199" height="30" as="geometry" />
        </mxCell>
        <mxCell id="5_TtilHv6aSdRsSLtLoY-40" value="FK" style="shape=partialRectangle;connectable=0;fillColor=none;top=0;left=0;bottom=0;right=0;editable=1;overflow=hidden;whiteSpace=wrap;html=1;" parent="5_TtilHv6aSdRsSLtLoY-39" vertex="1">
          <mxGeometry width="30" height="30" as="geometry">
            <mxRectangle width="30" height="30" as="alternateBounds" />
          </mxGeometry>
        </mxCell>
        <mxCell id="5_TtilHv6aSdRsSLtLoY-41" value="product_id int NOT NULL" style="shape=partialRectangle;connectable=0;fillColor=none;top=0;left=0;bottom=0;right=0;align=left;spacingLeft=6;overflow=hidden;whiteSpace=wrap;html=1;" parent="5_TtilHv6aSdRsSLtLoY-39" vertex="1">
          <mxGeometry x="30" width="169" height="30" as="geometry">
            <mxRectangle width="169" height="30" as="alternateBounds" />
          </mxGeometry>
        </mxCell>
        <mxCell id="5_TtilHv6aSdRsSLtLoY-42" value="" style="shape=tableRow;horizontal=0;startSize=0;swimlaneHead=0;swimlaneBody=0;fillColor=none;collapsible=0;dropTarget=0;points=[[0,0.5],[1,0.5]];portConstraint=eastwest;top=0;left=0;right=0;bottom=0;" parent="5_TtilHv6aSdRsSLtLoY-32" vertex="1">
          <mxGeometry y="90" width="199" height="30" as="geometry" />
        </mxCell>
        <mxCell id="5_TtilHv6aSdRsSLtLoY-43" value="" style="shape=partialRectangle;connectable=0;fillColor=none;top=0;left=0;bottom=0;right=0;editable=1;overflow=hidden;whiteSpace=wrap;html=1;" parent="5_TtilHv6aSdRsSLtLoY-42" vertex="1">
          <mxGeometry width="30" height="30" as="geometry">
            <mxRectangle width="30" height="30" as="alternateBounds" />
          </mxGeometry>
        </mxCell>
        <mxCell id="5_TtilHv6aSdRsSLtLoY-44" value="quantity int NOT NULL" style="shape=partialRectangle;connectable=0;fillColor=none;top=0;left=0;bottom=0;right=0;align=left;spacingLeft=6;overflow=hidden;whiteSpace=wrap;html=1;" parent="5_TtilHv6aSdRsSLtLoY-42" vertex="1">
          <mxGeometry x="30" width="169" height="30" as="geometry">
            <mxRectangle width="169" height="30" as="alternateBounds" />
          </mxGeometry>
        </mxCell>
        <mxCell id="5_TtilHv6aSdRsSLtLoY-55" value="" style="edgeStyle=entityRelationEdgeStyle;fontSize=12;html=1;endArrow=ERoneToMany;startArrow=ERmandOne;rounded=0;entryX=0;entryY=0.5;entryDx=0;entryDy=0;exitX=1;exitY=0.5;exitDx=0;exitDy=0;" parent="1" source="5_TtilHv6aSdRsSLtLoY-2" target="5_TtilHv6aSdRsSLtLoY-39" edge="1">
          <mxGeometry width="100" height="100" relative="1" as="geometry">
            <mxPoint x="804" y="475" as="sourcePoint" />
            <mxPoint x="904" y="375" as="targetPoint" />
          </mxGeometry>
        </mxCell>
        <mxCell id="5_TtilHv6aSdRsSLtLoY-56" value="" style="edgeStyle=entityRelationEdgeStyle;fontSize=12;html=1;endArrow=ERoneToMany;startArrow=ERmandOne;rounded=0;entryX=0;entryY=0.5;entryDx=0;entryDy=0;" parent="1" source="C-vyLk0tnHw3VtMMgP7b-3" target="5_TtilHv6aSdRsSLtLoY-36" edge="1">
          <mxGeometry width="100" height="100" relative="1" as="geometry">
            <mxPoint x="804" y="475" as="sourcePoint" />
            <mxPoint x="904" y="375" as="targetPoint" />
          </mxGeometry>
        </mxCell>
        <mxCell id="5_TtilHv6aSdRsSLtLoY-57" value="wishlist" style="shape=table;startSize=30;container=1;collapsible=1;childLayout=tableLayout;fixedRows=1;rowLines=0;fontStyle=1;align=center;resizeLast=1;html=1;" parent="1" vertex="1">
          <mxGeometry x="553" y="452" width="180" height="90" as="geometry" />
        </mxCell>
        <mxCell id="5_TtilHv6aSdRsSLtLoY-61" value="" style="shape=tableRow;horizontal=0;startSize=0;swimlaneHead=0;swimlaneBody=0;fillColor=none;collapsible=0;dropTarget=0;points=[[0,0.5],[1,0.5]];portConstraint=eastwest;top=0;left=0;right=0;bottom=0;" parent="5_TtilHv6aSdRsSLtLoY-57" vertex="1">
          <mxGeometry y="30" width="180" height="30" as="geometry" />
        </mxCell>
        <mxCell id="5_TtilHv6aSdRsSLtLoY-62" value="FK" style="shape=partialRectangle;connectable=0;fillColor=none;top=0;left=0;bottom=0;right=0;editable=1;overflow=hidden;whiteSpace=wrap;html=1;" parent="5_TtilHv6aSdRsSLtLoY-61" vertex="1">
          <mxGeometry width="30" height="30" as="geometry">
            <mxRectangle width="30" height="30" as="alternateBounds" />
          </mxGeometry>
        </mxCell>
        <mxCell id="5_TtilHv6aSdRsSLtLoY-63" value="user_id int NOT NULL" style="shape=partialRectangle;connectable=0;fillColor=none;top=0;left=0;bottom=0;right=0;align=left;spacingLeft=6;overflow=hidden;whiteSpace=wrap;html=1;" parent="5_TtilHv6aSdRsSLtLoY-61" vertex="1">
          <mxGeometry x="30" width="150" height="30" as="geometry">
            <mxRectangle width="150" height="30" as="alternateBounds" />
          </mxGeometry>
        </mxCell>
        <mxCell id="5_TtilHv6aSdRsSLtLoY-64" value="" style="shape=tableRow;horizontal=0;startSize=0;swimlaneHead=0;swimlaneBody=0;fillColor=none;collapsible=0;dropTarget=0;points=[[0,0.5],[1,0.5]];portConstraint=eastwest;top=0;left=0;right=0;bottom=0;" parent="5_TtilHv6aSdRsSLtLoY-57" vertex="1">
          <mxGeometry y="60" width="180" height="30" as="geometry" />
        </mxCell>
        <mxCell id="5_TtilHv6aSdRsSLtLoY-65" value="FK" style="shape=partialRectangle;connectable=0;fillColor=none;top=0;left=0;bottom=0;right=0;editable=1;overflow=hidden;whiteSpace=wrap;html=1;" parent="5_TtilHv6aSdRsSLtLoY-64" vertex="1">
          <mxGeometry width="30" height="30" as="geometry">
            <mxRectangle width="30" height="30" as="alternateBounds" />
          </mxGeometry>
        </mxCell>
        <mxCell id="5_TtilHv6aSdRsSLtLoY-66" value="product_id int NOT NULL" style="shape=partialRectangle;connectable=0;fillColor=none;top=0;left=0;bottom=0;right=0;align=left;spacingLeft=6;overflow=hidden;whiteSpace=wrap;html=1;" parent="5_TtilHv6aSdRsSLtLoY-64" vertex="1">
          <mxGeometry x="30" width="150" height="30" as="geometry">
            <mxRectangle width="150" height="30" as="alternateBounds" />
          </mxGeometry>
        </mxCell>
        <mxCell id="5_TtilHv6aSdRsSLtLoY-70" value="" style="edgeStyle=entityRelationEdgeStyle;fontSize=12;html=1;endArrow=ERoneToMany;startArrow=ERmandOne;rounded=0;exitX=0;exitY=0.5;exitDx=0;exitDy=0;entryX=1;entryY=0.5;entryDx=0;entryDy=0;" parent="1" source="5_TtilHv6aSdRsSLtLoY-2" target="5_TtilHv6aSdRsSLtLoY-64" edge="1">
          <mxGeometry width="100" height="100" relative="1" as="geometry">
            <mxPoint x="311" y="896" as="sourcePoint" />
            <mxPoint x="841" y="558" as="targetPoint" />
            <Array as="points">
              <mxPoint y="1091" />
            </Array>
          </mxGeometry>
        </mxCell>
        <mxCell id="5_TtilHv6aSdRsSLtLoY-72" value="" style="edgeStyle=entityRelationEdgeStyle;fontSize=12;html=1;endArrow=ERoneToMany;startArrow=ERmandOne;rounded=0;entryX=0;entryY=0.5;entryDx=0;entryDy=0;exitX=1;exitY=0.5;exitDx=0;exitDy=0;" parent="1" source="C-vyLk0tnHw3VtMMgP7b-24" target="C-vyLk0tnHw3VtMMgP7b-6" edge="1">
          <mxGeometry width="100" height="100" relative="1" as="geometry">
            <mxPoint x="448" y="166" as="sourcePoint" />
            <mxPoint x="560" y="302" as="targetPoint" />
            <Array as="points">
              <mxPoint x="98" y="766" />
            </Array>
          </mxGeometry>
        </mxCell>
        <mxCell id="5_TtilHv6aSdRsSLtLoY-75" value="" style="edgeStyle=entityRelationEdgeStyle;fontSize=12;html=1;endArrow=ERoneToMany;startArrow=ERmandOne;rounded=0;exitX=1.019;exitY=0.734;exitDx=0;exitDy=0;entryX=0;entryY=0.5;entryDx=0;entryDy=0;exitPerimeter=0;" parent="1" source="C-vyLk0tnHw3VtMMgP7b-27" target="5_TtilHv6aSdRsSLtLoY-61" edge="1">
          <mxGeometry width="100" height="100" relative="1" as="geometry">
            <mxPoint x="13" y="199" as="sourcePoint" />
            <mxPoint x="40" y="813" as="targetPoint" />
            <Array as="points">
              <mxPoint x="-67" y="396" />
              <mxPoint x="-13" y="355" />
              <mxPoint x="-20" y="354" />
              <mxPoint x="-20" y="350" />
              <mxPoint x="-57" y="402" />
              <mxPoint x="-72" y="356" />
              <mxPoint x="-260" y="500" />
              <mxPoint x="-279" y="502" />
            </Array>
          </mxGeometry>
        </mxCell>
        <mxCell id="5_TtilHv6aSdRsSLtLoY-88" value="rating" style="shape=table;startSize=30;container=1;collapsible=1;childLayout=tableLayout;fixedRows=1;rowLines=0;fontStyle=1;align=center;resizeLast=1;" parent="1" vertex="1">
          <mxGeometry x="512" y="571" width="250" height="158.33329264322916" as="geometry" />
        </mxCell>
        <mxCell id="5_TtilHv6aSdRsSLtLoY-89" value="" style="shape=partialRectangle;collapsible=0;dropTarget=0;pointerEvents=0;fillColor=none;points=[[0,0.5],[1,0.5]];portConstraint=eastwest;top=0;left=0;right=0;bottom=1;" parent="5_TtilHv6aSdRsSLtLoY-88" vertex="1">
          <mxGeometry y="30" width="250" height="30" as="geometry" />
        </mxCell>
        <mxCell id="5_TtilHv6aSdRsSLtLoY-90" value="PK" style="shape=partialRectangle;overflow=hidden;connectable=0;fillColor=none;top=0;left=0;bottom=0;right=0;fontStyle=1;" parent="5_TtilHv6aSdRsSLtLoY-89" vertex="1">
          <mxGeometry width="30" height="30" as="geometry">
            <mxRectangle width="30" height="30" as="alternateBounds" />
          </mxGeometry>
        </mxCell>
        <mxCell id="5_TtilHv6aSdRsSLtLoY-91" value="rating_id int NOT NULL " style="shape=partialRectangle;overflow=hidden;connectable=0;fillColor=none;top=0;left=0;bottom=0;right=0;align=left;spacingLeft=6;fontStyle=5;" parent="5_TtilHv6aSdRsSLtLoY-89" vertex="1">
          <mxGeometry x="30" width="220" height="30" as="geometry">
            <mxRectangle width="220" height="30" as="alternateBounds" />
          </mxGeometry>
        </mxCell>
        <mxCell id="5_TtilHv6aSdRsSLtLoY-92" value="" style="shape=partialRectangle;collapsible=0;dropTarget=0;pointerEvents=0;fillColor=none;points=[[0,0.5],[1,0.5]];portConstraint=eastwest;top=0;left=0;right=0;bottom=0;" parent="5_TtilHv6aSdRsSLtLoY-88" vertex="1">
          <mxGeometry y="60" width="250" height="30" as="geometry" />
        </mxCell>
        <mxCell id="5_TtilHv6aSdRsSLtLoY-93" value="FK" style="shape=partialRectangle;overflow=hidden;connectable=0;fillColor=none;top=0;left=0;bottom=0;right=0;" parent="5_TtilHv6aSdRsSLtLoY-92" vertex="1">
          <mxGeometry width="30" height="30" as="geometry">
            <mxRectangle width="30" height="30" as="alternateBounds" />
          </mxGeometry>
        </mxCell>
        <mxCell id="5_TtilHv6aSdRsSLtLoY-94" value="user_id int NOT NULL" style="shape=partialRectangle;overflow=hidden;connectable=0;fillColor=none;top=0;left=0;bottom=0;right=0;align=left;spacingLeft=6;" parent="5_TtilHv6aSdRsSLtLoY-92" vertex="1">
          <mxGeometry x="30" width="220" height="30" as="geometry">
            <mxRectangle width="220" height="30" as="alternateBounds" />
          </mxGeometry>
        </mxCell>
        <mxCell id="5_TtilHv6aSdRsSLtLoY-95" value="" style="shape=partialRectangle;collapsible=0;dropTarget=0;pointerEvents=0;fillColor=none;points=[[0,0.5],[1,0.5]];portConstraint=eastwest;top=0;left=0;right=0;bottom=0;" parent="5_TtilHv6aSdRsSLtLoY-88" vertex="1">
          <mxGeometry y="90" width="250" height="29" as="geometry" />
        </mxCell>
        <mxCell id="5_TtilHv6aSdRsSLtLoY-96" value="FK" style="shape=partialRectangle;overflow=hidden;connectable=0;fillColor=none;top=0;left=0;bottom=0;right=0;" parent="5_TtilHv6aSdRsSLtLoY-95" vertex="1">
          <mxGeometry width="30" height="29" as="geometry">
            <mxRectangle width="30" height="29" as="alternateBounds" />
          </mxGeometry>
        </mxCell>
        <mxCell id="5_TtilHv6aSdRsSLtLoY-97" value="product_id int NOT NULL" style="shape=partialRectangle;overflow=hidden;connectable=0;fillColor=none;top=0;left=0;bottom=0;right=0;align=left;spacingLeft=6;" parent="5_TtilHv6aSdRsSLtLoY-95" vertex="1">
          <mxGeometry x="30" width="220" height="29" as="geometry">
            <mxRectangle width="220" height="29" as="alternateBounds" />
          </mxGeometry>
        </mxCell>
        <mxCell id="5_TtilHv6aSdRsSLtLoY-98" value="" style="shape=partialRectangle;collapsible=0;dropTarget=0;pointerEvents=0;fillColor=none;points=[[0,0.5],[1,0.5]];portConstraint=eastwest;top=0;left=0;right=0;bottom=0;" parent="5_TtilHv6aSdRsSLtLoY-88" vertex="1">
          <mxGeometry y="119" width="250" height="29" as="geometry" />
        </mxCell>
        <mxCell id="5_TtilHv6aSdRsSLtLoY-99" value="" style="shape=partialRectangle;overflow=hidden;connectable=0;fillColor=none;top=0;left=0;bottom=0;right=0;" parent="5_TtilHv6aSdRsSLtLoY-98" vertex="1">
          <mxGeometry width="30" height="29" as="geometry">
            <mxRectangle width="30" height="29" as="alternateBounds" />
          </mxGeometry>
        </mxCell>
        <mxCell id="5_TtilHv6aSdRsSLtLoY-100" value="rating [1, 2, 3, 4, 5] NOT NULL" style="shape=partialRectangle;overflow=hidden;connectable=0;fillColor=none;top=0;left=0;bottom=0;right=0;align=left;spacingLeft=6;" parent="5_TtilHv6aSdRsSLtLoY-98" vertex="1">
          <mxGeometry x="30" width="220" height="29" as="geometry">
            <mxRectangle width="220" height="29" as="alternateBounds" />
          </mxGeometry>
        </mxCell>
        <mxCell id="5_TtilHv6aSdRsSLtLoY-101" value="" style="edgeStyle=entityRelationEdgeStyle;fontSize=12;html=1;endArrow=ERoneToMany;startArrow=ERmandOne;rounded=0;entryX=0;entryY=0.5;entryDx=0;entryDy=0;exitX=1.019;exitY=0.948;exitDx=0;exitDy=0;exitPerimeter=0;" parent="1" source="C-vyLk0tnHw3VtMMgP7b-27" target="5_TtilHv6aSdRsSLtLoY-92" edge="1">
          <mxGeometry width="100" height="100" relative="1" as="geometry">
            <mxPoint x="370" y="175" as="sourcePoint" />
            <mxPoint x="429" y="465" as="targetPoint" />
            <Array as="points">
              <mxPoint x="-57" y="406" />
              <mxPoint x="-3" y="365" />
              <mxPoint x="-10" y="364" />
              <mxPoint x="-10" y="360" />
              <mxPoint x="-47" y="412" />
              <mxPoint x="-62" y="366" />
              <mxPoint x="-250" y="510" />
              <mxPoint x="-269" y="512" />
            </Array>
          </mxGeometry>
        </mxCell>
        <mxCell id="5_TtilHv6aSdRsSLtLoY-102" value="" style="edgeStyle=entityRelationEdgeStyle;fontSize=12;html=1;endArrow=ERoneToMany;startArrow=ERmandOne;rounded=0;exitX=0;exitY=0.5;exitDx=0;exitDy=0;entryX=1;entryY=0.5;entryDx=0;entryDy=0;" parent="1" source="5_TtilHv6aSdRsSLtLoY-2" target="5_TtilHv6aSdRsSLtLoY-95" edge="1">
          <mxGeometry width="100" height="100" relative="1" as="geometry">
            <mxPoint x="722" y="356" as="sourcePoint" />
            <mxPoint x="744" y="481" as="targetPoint" />
            <Array as="points">
              <mxPoint x="123" y="962" />
            </Array>
          </mxGeometry>
        </mxCell>
        <mxCell id="5_TtilHv6aSdRsSLtLoY-103" value="" style="edgeStyle=entityRelationEdgeStyle;fontSize=12;html=1;endArrow=ERoneToMany;startArrow=ERmandOne;rounded=0;exitX=1;exitY=0.5;exitDx=0;exitDy=0;entryX=0;entryY=0.5;entryDx=0;entryDy=0;" parent="1" source="C-vyLk0tnHw3VtMMgP7b-24" target="5_TtilHv6aSdRsSLtLoY-8" edge="1">
          <mxGeometry width="100" height="100" relative="1" as="geometry">
            <mxPoint x="480" y="230" as="sourcePoint" />
            <mxPoint x="680" y="604" as="targetPoint" />
            <Array as="points">
              <mxPoint x="48" y="316" />
              <mxPoint x="102" y="275" />
              <mxPoint x="95" y="274" />
              <mxPoint x="95" y="270" />
              <mxPoint x="58" y="322" />
              <mxPoint x="43" y="276" />
              <mxPoint x="-145" y="420" />
              <mxPoint x="-164" y="422" />
            </Array>
          </mxGeometry>
        </mxCell>
        <mxCell id="5_TtilHv6aSdRsSLtLoY-107" value="seller_payment_method" style="shape=table;startSize=30;container=1;collapsible=1;childLayout=tableLayout;fixedRows=1;rowLines=0;fontStyle=1;align=center;resizeLast=1;html=1;" parent="1" vertex="1">
          <mxGeometry x="110" y="-134" width="251" height="180" as="geometry" />
        </mxCell>
        <mxCell id="5_TtilHv6aSdRsSLtLoY-108" value="" style="shape=tableRow;horizontal=0;startSize=0;swimlaneHead=0;swimlaneBody=0;fillColor=none;collapsible=0;dropTarget=0;points=[[0,0.5],[1,0.5]];portConstraint=eastwest;top=0;left=0;right=0;bottom=1;" parent="5_TtilHv6aSdRsSLtLoY-107" vertex="1">
          <mxGeometry y="30" width="251" height="30" as="geometry" />
        </mxCell>
        <mxCell id="5_TtilHv6aSdRsSLtLoY-109" value="PK" style="shape=partialRectangle;connectable=0;fillColor=none;top=0;left=0;bottom=0;right=0;fontStyle=1;overflow=hidden;whiteSpace=wrap;html=1;" parent="5_TtilHv6aSdRsSLtLoY-108" vertex="1">
          <mxGeometry width="30" height="30" as="geometry">
            <mxRectangle width="30" height="30" as="alternateBounds" />
          </mxGeometry>
        </mxCell>
        <mxCell id="5_TtilHv6aSdRsSLtLoY-110" value="id int NOT NULL" style="shape=partialRectangle;connectable=0;fillColor=none;top=0;left=0;bottom=0;right=0;align=left;spacingLeft=6;fontStyle=5;overflow=hidden;whiteSpace=wrap;html=1;" parent="5_TtilHv6aSdRsSLtLoY-108" vertex="1">
          <mxGeometry x="30" width="221" height="30" as="geometry">
            <mxRectangle width="221" height="30" as="alternateBounds" />
          </mxGeometry>
        </mxCell>
        <mxCell id="5_TtilHv6aSdRsSLtLoY-111" value="" style="shape=tableRow;horizontal=0;startSize=0;swimlaneHead=0;swimlaneBody=0;fillColor=none;collapsible=0;dropTarget=0;points=[[0,0.5],[1,0.5]];portConstraint=eastwest;top=0;left=0;right=0;bottom=0;" parent="5_TtilHv6aSdRsSLtLoY-107" vertex="1">
          <mxGeometry y="60" width="251" height="30" as="geometry" />
        </mxCell>
        <mxCell id="5_TtilHv6aSdRsSLtLoY-112" value="FK" style="shape=partialRectangle;connectable=0;fillColor=none;top=0;left=0;bottom=0;right=0;editable=1;overflow=hidden;whiteSpace=wrap;html=1;" parent="5_TtilHv6aSdRsSLtLoY-111" vertex="1">
          <mxGeometry width="30" height="30" as="geometry">
            <mxRectangle width="30" height="30" as="alternateBounds" />
          </mxGeometry>
        </mxCell>
        <mxCell id="5_TtilHv6aSdRsSLtLoY-113" value="seller_id int NOT NULL" style="shape=partialRectangle;connectable=0;fillColor=none;top=0;left=0;bottom=0;right=0;align=left;spacingLeft=6;overflow=hidden;whiteSpace=wrap;html=1;" parent="5_TtilHv6aSdRsSLtLoY-111" vertex="1">
          <mxGeometry x="30" width="221" height="30" as="geometry">
            <mxRectangle width="221" height="30" as="alternateBounds" />
          </mxGeometry>
        </mxCell>
        <mxCell id="5_TtilHv6aSdRsSLtLoY-114" value="" style="shape=tableRow;horizontal=0;startSize=0;swimlaneHead=0;swimlaneBody=0;fillColor=none;collapsible=0;dropTarget=0;points=[[0,0.5],[1,0.5]];portConstraint=eastwest;top=0;left=0;right=0;bottom=0;" parent="5_TtilHv6aSdRsSLtLoY-107" vertex="1">
          <mxGeometry y="90" width="251" height="30" as="geometry" />
        </mxCell>
        <mxCell id="5_TtilHv6aSdRsSLtLoY-115" value="" style="shape=partialRectangle;connectable=0;fillColor=none;top=0;left=0;bottom=0;right=0;editable=1;overflow=hidden;whiteSpace=wrap;html=1;" parent="5_TtilHv6aSdRsSLtLoY-114" vertex="1">
          <mxGeometry width="30" height="30" as="geometry">
            <mxRectangle width="30" height="30" as="alternateBounds" />
          </mxGeometry>
        </mxCell>
        <mxCell id="5_TtilHv6aSdRsSLtLoY-116" value="account_number&amp;nbsp; char(50) NOT NULL" style="shape=partialRectangle;connectable=0;fillColor=none;top=0;left=0;bottom=0;right=0;align=left;spacingLeft=6;overflow=hidden;whiteSpace=wrap;html=1;" parent="5_TtilHv6aSdRsSLtLoY-114" vertex="1">
          <mxGeometry x="30" width="221" height="30" as="geometry">
            <mxRectangle width="221" height="30" as="alternateBounds" />
          </mxGeometry>
        </mxCell>
        <mxCell id="5_TtilHv6aSdRsSLtLoY-117" value="" style="shape=tableRow;horizontal=0;startSize=0;swimlaneHead=0;swimlaneBody=0;fillColor=none;collapsible=0;dropTarget=0;points=[[0,0.5],[1,0.5]];portConstraint=eastwest;top=0;left=0;right=0;bottom=0;" parent="5_TtilHv6aSdRsSLtLoY-107" vertex="1">
          <mxGeometry y="120" width="251" height="30" as="geometry" />
        </mxCell>
        <mxCell id="5_TtilHv6aSdRsSLtLoY-118" value="" style="shape=partialRectangle;connectable=0;fillColor=none;top=0;left=0;bottom=0;right=0;editable=1;overflow=hidden;whiteSpace=wrap;html=1;" parent="5_TtilHv6aSdRsSLtLoY-117" vertex="1">
          <mxGeometry width="30" height="30" as="geometry">
            <mxRectangle width="30" height="30" as="alternateBounds" />
          </mxGeometry>
        </mxCell>
        <mxCell id="5_TtilHv6aSdRsSLtLoY-119" value="phone_number char(50) NOT NULL" style="shape=partialRectangle;connectable=0;fillColor=none;top=0;left=0;bottom=0;right=0;align=left;spacingLeft=6;overflow=hidden;whiteSpace=wrap;html=1;" parent="5_TtilHv6aSdRsSLtLoY-117" vertex="1">
          <mxGeometry x="30" width="221" height="30" as="geometry">
            <mxRectangle width="221" height="30" as="alternateBounds" />
          </mxGeometry>
        </mxCell>
        <mxCell id="5_TtilHv6aSdRsSLtLoY-120" value="" style="shape=tableRow;horizontal=0;startSize=0;swimlaneHead=0;swimlaneBody=0;fillColor=none;collapsible=0;dropTarget=0;points=[[0,0.5],[1,0.5]];portConstraint=eastwest;top=0;left=0;right=0;bottom=0;" parent="5_TtilHv6aSdRsSLtLoY-107" vertex="1">
          <mxGeometry y="150" width="251" height="30" as="geometry" />
        </mxCell>
        <mxCell id="5_TtilHv6aSdRsSLtLoY-121" value="" style="shape=partialRectangle;connectable=0;fillColor=none;top=0;left=0;bottom=0;right=0;editable=1;overflow=hidden;whiteSpace=wrap;html=1;" parent="5_TtilHv6aSdRsSLtLoY-120" vertex="1">
          <mxGeometry width="30" height="30" as="geometry">
            <mxRectangle width="30" height="30" as="alternateBounds" />
          </mxGeometry>
        </mxCell>
        <mxCell id="5_TtilHv6aSdRsSLtLoY-122" value="" style="shape=partialRectangle;connectable=0;fillColor=none;top=0;left=0;bottom=0;right=0;align=left;spacingLeft=6;overflow=hidden;whiteSpace=wrap;html=1;" parent="5_TtilHv6aSdRsSLtLoY-120" vertex="1">
          <mxGeometry x="30" width="221" height="30" as="geometry">
            <mxRectangle width="221" height="30" as="alternateBounds" />
          </mxGeometry>
        </mxCell>
        <mxCell id="5_TtilHv6aSdRsSLtLoY-125" value="" style="edgeStyle=entityRelationEdgeStyle;fontSize=12;html=1;endArrow=ERmandOne;startArrow=ERmandOne;rounded=0;exitX=1;exitY=0.5;exitDx=0;exitDy=0;" parent="1" source="C-vyLk0tnHw3VtMMgP7b-24" target="5_TtilHv6aSdRsSLtLoY-111" edge="1">
          <mxGeometry width="100" height="100" relative="1" as="geometry">
            <mxPoint x="274" y="294" as="sourcePoint" />
            <mxPoint x="374" y="194" as="targetPoint" />
          </mxGeometry>
        </mxCell>
      </root>
    </mxGraphModel>
  </diagram>
</mxfile>
